# xmcd CD database file
#
# Track frame offsets:
#	150
#	14248
#	26643
#	37972
#	60039
#	79306
#	97709
#	120205
#	142387
#	158923
#	176856
#	198384
#
# Disc length: 2863 seconds
#
# Revision: 0
# Processed by: cddbd v1.5.2PL0 Copyright (c) Steve Scherf et al.
# Submitted via: CDex 1.70beta2
#
DISCID=990b2d0c
DTITLE=Boo Boo Davis - The Snake
DYEAR=2003
DGENRE=Blues
TTITLE0=Don`t Bother My Shoes
TTITLE1=Mountain Top
TTITLE2=Leave It Alone
TTITLE3=Crown Royal
TTITLE4=The Snake
TTITLE5=Mike In Jail
TTITLE6=Where Was My Baby
TTITLE7=Moley Man
TTITLE8=Keep Your Car Locked
TTITLE9=Shut That Door
TTITLE10=Riplin
TTITLE11=Sure Head A Wonderful Time
EXTD=YEAR: 2003
EXTT0=
EXTT1=
EXTT2=
EXTT3=
EXTT4=
EXTT5=
EXTT6=
EXTT7=
EXTT8=
EXTT9=
EXTT10=
EXTT11=
PLAYORDER=
